# xmcd
#
# Track frame offsets:
#	150
#	4915
#	10778
#	17218
#	24793
#	30738
#	40915
#	48345
#	54165
#	59427
#	64468
#	69253
#	74045
#	83230
#	88260
#	95140
#	102810
#	106035
#	120928
#	131060
#	137130
#	146493
#	154990
#	165765
#	173400
#	184395
#	192635
#	205293
#	217145
#	223390
#
# Disc length: 3087 seconds
#
# Revision: 0
# Processed by: cddbd v1.5.1PL2 Copyright (c) Steve Scherf et al.
# Submitted via: audiograbber 1.83.01
#
DISCID=b40c0d1e
DTITLE=Florian Michlbauer - 30 Weihnachtslieder and Stade Weisen
DYEAR=1900
DGENRE=
TTITLE0=Alle Jahre wieder
TTITLE1=Ihr Kinderlein kommet
TTITLE2=Leise rieselt der Schnee
TTITLE3=Stefani-Boarischer
TTITLE4=Stille Nacht, heilige Nacht
TTITLE5=Weihnachtliche Weise
TTITLE6=Still, still
TTITLE7=Iatz is da rauhe Winta do
TTITLE8=Es wird scho glei dumpa
TTITLE9=Aber heidschi bumbeidschi
TTITLE10=Morgen kommt der Weihnachtsmann
TTITLE11=O Tannenbaum
TTITLE12=Süßer die Glocken nie klingen
TTITLE13=Kling Glöcklein klingelingeling
TTITLE14=Freu Dich, Du liaba Christ
TTITLE15=O du fröhliche
TTITLE16=Lasst uns froh und munter sein
TTITLE17=Harfenländler
TTITLE18=Bauernmenuett
TTITLE19=s´Gebot is scho ausgangen
TTITLE20=A stade Weis Nr. 2
TTITLE21=Nikolo-Ländler
TTITLE22=Ländler
TTITLE23=Beim Ofnwinkal
TTITLE24=Hiatabua-Walzer
TTITLE25=Alt-Jahrs-Ländler
TTITLE26=Advent-Ländler
TTITLE27=Beim Krippal
TTITLE28=Barbarazweigerl-Ländler
TTITLE29=Atterseer Hirtenweise
EXTD=
EXTT0=
EXTT1=
EXTT2=
EXTT3=
EXTT4=
EXTT5=
EXTT6=
EXTT7=
EXTT8=
EXTT9=
EXTT10=
EXTT11=
EXTT12=
EXTT13=
EXTT14=
EXTT15=
EXTT16=
EXTT17=
EXTT18=
EXTT19=
EXTT20=
EXTT21=
EXTT22=
EXTT23=
EXTT24=
EXTT25=
EXTT26=
EXTT27=
EXTT28=
EXTT29=
PLAYORDER=
